# xmcd
#
# Track frame offsets:
#	150
#	16265
#	26801
#	42544
#	55407
#	67724
#	83382
#	95291
#	109379
#	125567
#	142517
#	154721
#	168474
#	184355
#	197663
#	221107
#	235798
#	251225
#
# Disc length: 3576 seconds
#
# Revision: 0
# Processed by: cddbd v1.5.1PL0 Copyright (c) Steve Scherf et al.
# Submitted via: audiograbber 1.83.01
#
DISCID=f50df612
DTITLE=Strait, George - Strait Out Of The Box Disc 03 - Strait, George - Strait
DTITLE=Out Of The Box Disc 03
DYEAR=1995
DGENRE=Country
TTITLE0=Baby Blue
TTITLE1=If You Aint Lovin' (You Aint Livin)
TTITLE2=Baby's Gotten Good At Goodbye
TTITLE3=Bigger Man Than Me
TTITLE4=Hollywood Squares
TTITLE5=What's Going on in Your World
TTITLE6=Ace In The Hole
TTITLE7=Love Without End, Amen
TTITLE8=Drinking Champagne
TTITLE9=I've Come To Expect It From You
TTITLE10=If I know Me
TTITLE11=You Know Me Better Than That
TTITLE12=The Chill of an Early Fall
TTITLE13=Lovesick Blues
TTITLE14=Milk Cow Blues
TTITLE15=Gone as a Girl Can Get 
TTITLE16=So Much Like My Dad
TTITLE17=Trains Make Me Lonesome
EXTD=
EXTT0=
EXTT1=
EXTT2=
EXTT3=
EXTT4=
EXTT5=
EXTT6=
EXTT7=
EXTT8=
EXTT9=
EXTT10=
EXTT11=
EXTT12=
EXTT13=
EXTT14=
EXTT15=
EXTT16=
EXTT17=
PLAYORDER=
